<?xml version="1.0" encoding="UTF-8" standalone="no"?>
<!-- Created with Inkscape (http://www.inkscape.org/) -->
<svg id="svg2" xmlns:rdf="http://www.w3.org/1999/02/22-rdf-syntax-ns#" xmlns="http://www.w3.org/2000/svg" xmlns:osb="http://www.openswatchbook.org/uri/2009/osb" viewBox="0 0 100.66 22.094" version="1.1" xmlns:cc="http://creativecommons.org/ns#" xmlns:xlink="http://www.w3.org/1999/xlink" xmlns:dc="http://purl.org/dc/elements/1.1/">
 <defs id="defs4"></defs>
 
 <g id="layer1" transform="translate(0.3125,-1013.081)" fill="#fff">
  <g id="text" style="writing-mode:lr-tb;letter-spacing:0px;text-anchor:start;word-spacing:0px;text-align:start;" font-family="Courier 10 Pitch" font-weight="normal" transform="scale(1.0418378,0.95984231)" line-height="100%" stroke="#000" font-stretch="normal" stroke-miterlimit="4" font-size="22px" font-variant="normal" font-style="normal" stroke-width="0.60000002" fill="none">
   <path id="path3946" d="m6.6265,1073.8,0-8.778,5.72,9.856c0.352,0.594,0.33,0.616,0.924,0.616h0.132c0.528,0,0.792-0.022,0.792-0.55v-10.824h0.154c0.792,0,1.078-0.176,1.078-0.77,0-0.506-0.242-0.77-0.77-0.77h-0.506-2.574c-0.792,0-1.166,0.088-1.166,0.77,0,0.55,0.352,0.77,1.1,0.77h0.77,0.418v8.492l-5.412-9.35c-0.33-0.594-0.462-0.682-1.166-0.682h-1.012c-1.188,0-1.804,0.022-1.804,0.77,0,0.682,0.55,0.77,1.804,0.77v9.68h-0.198c-0.77,0-1.078,0.132-1.078,0.748,0,0.506,0.242,0.77,0.77,0.77h0.506,2.684c0.858,0,1.254-0.066,1.254-0.77,0-0.55-0.352-0.748-1.1-0.748h-0.77-0.55" stroke-miterlimit="4" stroke-dasharray="none" stroke-width="0.6"/>
   <path id="path3948" style="" d="m49.124,1075.3h0.77c1.342,0,2.508-0.066,3.586-0.858,0.902-0.682,1.408-1.694,1.408-2.816,0-1.54-0.726-2.53-2.288-3.08,0.968-0.55,1.452-1.408,1.452-2.53,0-2.2-1.562-3.454-4.664-3.454h-5.016c-0.484,0-0.748,0.264-0.748,0.77,0,0.704,0.374,0.77,1.298,0.77h0.352v9.68h-0.374c-0.946,0-1.342,0.022-1.342,0.748,0,0.506,0.242,0.77,0.748,0.77h4.818m-2.156-7.238,0-3.96,2.662,0c1.694,0,2.574,0.726,2.574,1.98,0,1.364-0.99,1.98-2.992,1.98h-2.244m0,5.72,0-4.4,2.486,0c2.354,0,3.564,0.44,3.564,2.2,0,1.716-1.21,2.2-3.674,2.2h-2.376"/>
   <path id="path3950" style="" d="m63.48,1073.8,0-7.964c0-0.264-0.198-0.44-0.616-0.44h-3.146c-0.572,0-0.858,0.242-0.858,0.748s0.308,0.77,0.902,0.77h2.09v6.886h-3.278c-0.594,0-0.902,0.242-0.902,0.748s0.286,0.77,0.858,0.77h8.338c0.638,0,0.88-0.154,0.88-0.77,0-0.528-0.264-0.748-0.814-0.748h-3.454m-2.002-11.506c0,0.88,0.22,1.056,1.122,1.056,1.034,0,1.1-0.242,1.1-1.364s-0.11-1.452-1.1-1.452-1.122,0.33-1.122,1.76"/>
   <path id="path3952" style="" d="m71.016,1074.5c0,0.682,0.286,1.034,0.792,1.034,0.242,0,0.594-0.176,1.1-0.506,1.21,0.308,2.288,0.484,3.256,0.484,2.684,0,4.202-1.342,4.202-3.19,0-2.112-1.474-2.948-4.312-3.014-2.112-0.044-3.344-0.154-3.344-1.298,0-0.858,0.814-1.584,2.244-1.584,1.122,0,1.914,0.264,2.728,0.99,0.638,0.572,0.858,1.122,1.342,1.122,0.528,0,0.726-0.374,0.726-1.078v-1.254c0-0.726-0.242-1.078-0.726-1.078-0.572,0-0.792,0.418-1.1,0.418s-1.166-0.484-2.728-0.484c-2.662,0-4.136,1.232-4.136,3.014,0,1.914,1.562,2.97,4.488,2.97h0.616c1.628,0,2.42,0.308,2.42,1.408,0,0.968-0.968,1.672-2.53,1.672-1.452,0-2.684-0.528-3.256-1.276-0.418-0.55-0.352-1.144-1.012-1.144-0.572,0-0.77,0.308-0.77,0.88v1.914"/>
   <path id="path3954" style="" d="m84.911,1073.8h-0.22c-0.88,0-1.254,0.132-1.254,0.748,0,0.506,0.286,0.77,0.858,0.77h2.86c0.638,0,0.858-0.154,0.858-0.77,0-0.594-0.286-0.77-1.034-0.77-0.132,0-0.286,0.022-0.462,0.022v-4.466c0-1.606,1.496-2.574,2.794-2.574,1.408,0,2.266,0.858,2.266,2.574v4.466h-0.418c-0.77,0-1.056,0.154-1.056,0.748,0,0.616,0.22,0.77,0.858,0.77h2.86c0.572,0,0.858-0.264,0.858-0.77,0-0.55-0.33-0.748-1.012-0.748h-0.462v-4.862c0-2.486-1.474-3.828-3.52-3.828-1.122,0-2.112,0.484-3.146,1.452v-4.862c0-0.264-0.198-0.44-0.616-0.44h-1.628c-0.572,0-0.858,0.264-0.858,0.77,0,0.55,0.308,0.748,0.99,0.748,0.154,0,0.33,0.022,0.484,0.022v11"/>
  </g>
  <g id="left-eye-ball" stroke-dashoffset="0" transform="translate(2,-0.06313)" stroke="#000" stroke-miterlimit="4" stroke-dasharray="none">
   <path id="path3778" d="m23.96,26.293a1.4521,1.4521,0,1,1,-2.9042,0,1.4521,1.4521,0,1,1,2.9042,0z" transform="matrix(1.1522214,0,0,1.1599073,-3.4335799,997.62238)" stroke-width="0.60000002" fill="#000"/>
   <path id="path3780" d="m29.621,25.212c0,0.33901-0.27982,0.61384-0.625,0.61384s-0.625-0.27483-0.625-0.61384,0.27982-0.61384,0.625-0.61384,0.625,0.27482,0.625,0.61384z" transform="translate(-5.9521619,1003.6741)" stroke-width="0.1" fill="#FFF"/>
  </g>
  <g id="right-eye-ball" stroke-dashoffset="0" transform="translate(4,0)" stroke="#000" stroke-miterlimit="4" stroke-dasharray="none">
   <path id="path3778-5" d="m23.96,26.293c0,0.80197-0.65012,1.4521-1.4521,1.4521-0.80197,0-1.4521-0.65012-1.4521-1.4521,0-0.80197,0.65012-1.4521,1.4521-1.4521,0.80197,0,1.4521,0.65012,1.4521,1.4521z" transform="matrix(1.1522214,0,0,1.1599073,7.3383211,997.55925)" stroke-width="0.60000002" fill="#000"/>
   <path id="path3780-8" d="m29.621,25.212c0,0.33901-0.27982,0.61384-0.625,0.61384s-0.625-0.27483-0.625-0.61384,0.27982-0.61384,0.625-0.61384,0.625,0.27482,0.625,0.61384z" transform="translate(3.7982932,1003.611)" stroke-width="0.1" fill="#FFF"/>
  </g>
  <path id="path3874" style="baseline-shift:baseline;block-progression:tb;color:#000000;direction:ltr;text-indent:0;text-align:start;enable-background:accumulate;text-transform:none;" fill="#000" d="m28.444,1027.4,0.03638,0.2582c2.1049-1.596,2.579-1.3318,4.7876-0.2359l0.0088-0.2532c-1.8198-1.7034-3.1238-1.7319-4.8328,0.2309z"/>
  <g id="glass">
   <g id="left-glass" stroke-dashoffset="0" transform="translate(2,-0.06319652)" stroke="#000" stroke-dasharray="none" stroke-miterlimit="4" fill="none">
    <rect id="rect3772" rx="3" ry="3" height="12.434" width="8.9344" y="1019.7" x="17.572" stroke-width="0.6"/>
    <rect id="rect3776" rx="2.1553" ry="2.2449" height="9.7213" width="5.9655" y="1021" x="19.05" stroke-width="0.60364"/>
   </g>
   <g id="right-glass" stroke-dashoffset="0" transform="translate(15.674556,-0.11275707)" stroke="#000" stroke-dasharray="none" stroke-miterlimit="4" fill="none">
    <rect id="rect3772-4" rx="3" ry="3" height="12.434" width="8.9344" y="1019.7" x="17.572" stroke-width="0.6"/>
    <rect id="rect3776-2" rx="2.1553" ry="2.2449" height="9.7213" width="5.9655" y="1021" x="19.05" stroke-width="0.60364"/>
   </g>
   <path id="nose" style="baseline-shift:baseline;block-progression:tb;color:#000000;direction:ltr;text-indent:0;text-align:start;enable-background:accumulate;text-transform:none;" d="m28.41,1026.2,0.03638,0.2582c2.1049-1.596,2.579-1.3318,4.7876-0.2359l0.0088-0.2532c-1.8198-1.7034-3.1238-1.7319-4.8328,0.2309z" fill="#000"/>
  </g>
  <path id="left-eye-brow" style="baseline-shift:baseline;block-progression:tb;color:#000000;direction:ltr;text-indent:0;text-align:start;enable-background:accumulate;text-transform:none;" d="m28.625,1015.7-9.4286,2.543c-0.28396,0.072-0.56949,0.1805-0.50746,0.4551,0.06202,0.2747,0.35814,0.3146,0.62354,0.2206l9.5625-2.25c0.25584-0.063,0.43-0.3554,0.36414-0.6106s-0.35959-0.4265-0.61414-0.3581z" stroke="#000" stroke-miterlimit="4" stroke-dasharray="none" stroke-width="0.60000002" fill="none"/>
  <path id="right-eye-brow" style="baseline-shift:baseline;block-progression:tb;color:#000000;direction:ltr;text-indent:0;text-align:start;enable-background:accumulate;text-transform:none;" d="m32.958,1016.7,9.5422,2.0761c0.28531,0.067,0.58873,0.1015,0.65991-0.1708,0.07123-0.2725-0.17339-0.444-0.45229-0.4826l-9.5265-2.3979c-0.25622-0.062-0.54525,0.1179-0.60414,0.3748-0.05871,0.257,0.12328,0.5441,0.38082,0.6004z" stroke="#000" stroke-miterlimit="4" stroke-dasharray="none" stroke-width="0.60000002" fill="none"/>
  <path id="left-eye-mask" d="m23.96,26.293a1.4521,1.4521,0,1,1,-2.9042,0,1.4521,1.4521,0,1,1,2.9042,0z" transform="matrix(1.1522214,0,0,1.1599073,-1.4335799,993.36483)" stroke-dashoffset="0" stroke="#FFF" stroke-miterlimit="4" stroke-dasharray="none" stroke-width="0.60000001999999997" fill="#FFF"/>
  <path id="right-eye-mask" d="m23.96,26.293a1.4521,1.4521,0,1,1,-2.9042,0,1.4521,1.4521,0,1,1,2.9042,0z" transform="matrix(1.1522214,0,0,1.1599073,11.338321,993.36483)" stroke-dashoffset="0" stroke="#FFF" stroke-miterlimit="4" stroke-dasharray="none" stroke-width="0.60000002" fill="#FFF"/>
 </g>
</svg>
